<?xml version="1.0" encoding="UTF-8"?><svg id="a" xmlns="http://www.w3.org/2000/svg" viewBox="0 0 1920 1080"><defs><style>.b{fill:#8991e8;}.c{fill:#222326;}.d{fill:#e76666;}.e{fill:#9be872;}.f{fill:#f2f2f2;}</style></defs><g><rect class="c" x=".5" y=".5" width="1919" height="1079"/><path d="M1919,1V1079H1V1H1919m1-1H0V1080H1920V0h0Z"/></g><g><path class="f" d="M438.5,441.17c1.26,0,2.63,.35,4.11,1.05,1.47,.7,2.63,1.62,3.48,2.74l55.83,84.48-7.37-.21,56.46-84.27c1.82-2.67,4.21-3.93,7.16-3.79,2.25,.14,4.21,.98,5.9,2.53,1.69,1.55,2.53,3.58,2.53,6.11v130.41c0,2.39-.84,4.42-2.53,6.11-1.69,1.69-3.79,2.53-6.32,2.53s-4.64-.84-6.32-2.53c-1.69-1.69-2.53-3.72-2.53-6.11v-114.4l5.27,1.05-49.72,75.64c-.84,.98-1.86,1.83-3.05,2.53-1.19,.71-2.42,1.05-3.69,1.05s-2.53-.35-3.79-1.05c-1.26-.7-2.32-1.54-3.16-2.53l-49.09-75.64,4.42-5.48v118.83c0,2.39-.77,4.42-2.32,6.11-1.55,1.69-3.51,2.53-5.9,2.53s-4.32-.84-5.79-2.53c-1.48-1.69-2.21-3.72-2.21-6.11v-130.41c0-2.25,.81-4.25,2.42-6,1.61-1.75,3.69-2.63,6.22-2.63Z"/><path class="f" d="M690.26,478.89c2.39,0,4.39,.81,6,2.42,1.61,1.62,2.42,3.62,2.42,6v92.91c0,2.39-.81,4.42-2.42,6.11-1.62,1.69-3.62,2.53-6,2.53-2.53,0-4.57-.84-6.11-2.53-1.55-1.69-2.32-3.72-2.32-6.11v-20.01l4-.42c0,3.09-1.05,6.46-3.16,10.11-2.11,3.65-4.99,7.06-8.64,10.22-3.65,3.16-7.97,5.76-12.96,7.79-4.99,2.04-10.36,3.06-16.12,3.06-9.55,0-18.12-2.49-25.7-7.48-7.58-4.98-13.59-11.76-18.01-20.33-4.42-8.57-6.64-18.33-6.64-29.29s2.21-20.89,6.64-29.39c4.42-8.5,10.43-15.17,18.01-20.02,7.58-4.85,16.01-7.27,25.28-7.27,6.04,0,11.66,.98,16.85,2.95,5.19,1.97,9.72,4.64,13.59,8.01,3.86,3.37,6.88,7.09,9.06,11.17,2.18,4.08,3.27,8.15,3.27,12.22l-5.48-1.26v-22.96c0-2.39,.77-4.39,2.32-6,1.54-1.61,3.58-2.42,6.11-2.42Zm-43.4,96.49c7.02,0,13.24-1.82,18.65-5.48,5.41-3.65,9.62-8.6,12.64-14.85,3.02-6.25,4.53-13.31,4.53-21.17s-1.51-14.71-4.53-20.96c-3.02-6.25-7.24-11.17-12.64-14.75-5.41-3.58-11.62-5.37-18.65-5.37s-13.03,1.76-18.43,5.27c-5.41,3.51-9.66,8.36-12.75,14.54-3.09,6.18-4.63,13.27-4.63,21.28s1.51,14.93,4.53,21.17c3.02,6.25,7.23,11.2,12.64,14.85,5.41,3.65,11.62,5.48,18.65,5.48Z"/><path class="f" d="M778.33,477.2c7.16,0,13.62,.77,19.38,2.32,5.76,1.55,10.32,3.65,13.69,6.32,3.37,2.67,5.06,5.69,5.06,9.06,0,1.83-.63,3.58-1.9,5.27s-2.95,2.53-5.06,2.53c-1.97,0-3.55-.35-4.74-1.05-1.19-.7-2.32-1.61-3.37-2.74-1.05-1.12-2.5-2.11-4.32-2.95-1.69-.98-4.14-1.75-7.37-2.32-3.23-.56-6.46-.84-9.69-.84-7.73,0-14.5,1.83-20.33,5.48-5.83,3.65-10.43,8.57-13.8,14.75-3.37,6.18-5.06,13.2-5.06,21.07s1.61,14.89,4.85,21.07c3.23,6.18,7.72,11.1,13.48,14.75,5.76,3.65,12.43,5.48,20.02,5.48,4.92,0,8.85-.42,11.8-1.26s5.41-1.82,7.37-2.95c2.53-1.4,4.46-2.81,5.79-4.21,1.33-1.4,3.12-2.11,5.37-2.11,2.39,0,4.25,.77,5.58,2.32,1.33,1.55,2,3.44,2,5.69,0,2.53-1.76,5.2-5.27,8.01-3.51,2.81-8.25,5.2-14.22,7.16-5.97,1.97-12.75,2.95-20.33,2.95-10.68,0-20.02-2.49-28.02-7.48-8.01-4.98-14.22-11.8-18.65-20.44s-6.64-18.29-6.64-28.97,2.28-20.3,6.85-28.86c4.56-8.57,10.92-15.38,19.07-20.44,8.14-5.06,17.62-7.58,28.44-7.58Z"/><path class="f" d="M847.64,588.86c-2.39,0-4.39-.84-6-2.53-1.62-1.69-2.42-3.72-2.42-6.11v-91.86c0-2.39,.81-4.39,2.42-6,1.61-1.61,3.61-2.42,6-2.42,2.53,0,4.56,.81,6.11,2.42,1.54,1.62,2.32,3.62,2.32,6v27.81l-2.53-4.42c.84-4.35,2.35-8.6,4.53-12.75,2.18-4.14,4.95-7.86,8.32-11.17,3.37-3.3,7.23-5.9,11.59-7.8,4.35-1.9,9.13-2.84,14.33-2.84,3.09,0,5.93,.74,8.53,2.21,2.6,1.47,3.9,3.55,3.9,6.22,0,2.95-.77,5.13-2.32,6.53-1.55,1.41-3.3,2.11-5.27,2.11-1.83,0-3.58-.39-5.27-1.16-1.69-.77-3.79-1.16-6.32-1.16-3.51,0-6.99,.95-10.43,2.84-3.44,1.9-6.6,4.6-9.48,8.11-2.88,3.51-5.2,7.48-6.95,11.9-1.76,4.42-2.63,9.16-2.63,14.22v51.2c0,2.39-.81,4.42-2.42,6.11-1.62,1.69-3.62,2.53-6,2.53Z"/><path class="f" d="M1022.51,534.09c0,10.96-2.42,20.72-7.27,29.29-4.85,8.57-11.38,15.31-19.59,20.23-8.22,4.92-17.45,7.37-27.71,7.37s-19.52-2.46-27.81-7.37c-8.29-4.92-14.85-11.66-19.7-20.23-4.85-8.57-7.27-18.33-7.27-29.29s2.42-20.72,7.27-29.29c4.85-8.57,11.41-15.31,19.7-20.23,8.29-4.91,17.56-7.37,27.81-7.37s19.49,2.46,27.71,7.37c8.22,4.92,14.75,11.66,19.59,20.23,4.85,8.57,7.27,18.33,7.27,29.29Zm-16.85,0c0-8.14-1.65-15.31-4.95-21.49-3.3-6.18-7.79-11.02-13.48-14.54-5.69-3.51-12.11-5.27-19.28-5.27s-13.59,1.76-19.28,5.27c-5.69,3.51-10.22,8.36-13.59,14.54-3.37,6.18-5.06,13.35-5.06,21.49s1.69,15.1,5.06,21.28c3.37,6.18,7.9,11.06,13.59,14.64,5.69,3.58,12.11,5.37,19.28,5.37s13.59-1.79,19.28-5.37c5.69-3.58,10.18-8.46,13.48-14.64,3.3-6.18,4.95-13.27,4.95-21.28Z"/><path class="f" d="M1059.38,441.17c1.26,0,2.63,.35,4.11,1.05,1.47,.7,2.63,1.62,3.48,2.74l55.83,84.48-7.37-.21,56.46-84.27c1.82-2.67,4.21-3.93,7.16-3.79,2.25,.14,4.21,.98,5.9,2.53,1.69,1.55,2.53,3.58,2.53,6.11v130.41c0,2.39-.84,4.42-2.53,6.11s-3.79,2.53-6.32,2.53-4.63-.84-6.32-2.53-2.53-3.72-2.53-6.11v-114.4l5.27,1.05-49.72,75.64c-.84,.98-1.86,1.83-3.05,2.53-1.2,.71-2.42,1.05-3.69,1.05s-2.53-.35-3.79-1.05c-1.26-.7-2.32-1.54-3.16-2.53l-49.09-75.64,4.42-5.48v118.83c0,2.39-.77,4.42-2.32,6.11-1.55,1.69-3.51,2.53-5.9,2.53s-4.32-.84-5.79-2.53-2.21-3.72-2.21-6.11v-130.41c0-2.25,.81-4.25,2.42-6,1.61-1.75,3.69-2.63,6.21-2.63Z"/><path class="f" d="M1311.14,478.89c2.39,0,4.39,.81,6,2.42,1.61,1.62,2.42,3.62,2.42,6v92.91c0,2.39-.81,4.42-2.42,6.11-1.62,1.69-3.62,2.53-6,2.53-2.53,0-4.57-.84-6.11-2.53-1.55-1.69-2.32-3.72-2.32-6.11v-20.01l4-.42c0,3.09-1.05,6.46-3.16,10.11-2.11,3.65-4.99,7.06-8.64,10.22-3.65,3.16-7.97,5.76-12.96,7.79-4.99,2.04-10.36,3.06-16.12,3.06-9.55,0-18.12-2.49-25.7-7.48-7.58-4.98-13.59-11.76-18.01-20.33-4.42-8.57-6.64-18.33-6.64-29.29s2.21-20.89,6.64-29.39c4.42-8.5,10.43-15.17,18.01-20.02,7.58-4.85,16.01-7.27,25.28-7.27,6.04,0,11.66,.98,16.86,2.95,5.19,1.97,9.72,4.64,13.59,8.01,3.86,3.37,6.88,7.09,9.06,11.17,2.18,4.08,3.27,8.15,3.27,12.22l-5.48-1.26v-22.96c0-2.39,.77-4.39,2.32-6,1.54-1.61,3.58-2.42,6.11-2.42Zm-43.4,96.49c7.02,0,13.24-1.82,18.65-5.48,5.41-3.65,9.62-8.6,12.64-14.85,3.02-6.25,4.53-13.31,4.53-21.17s-1.51-14.71-4.53-20.96c-3.02-6.25-7.24-11.17-12.64-14.75-5.41-3.58-11.62-5.37-18.65-5.37s-13.03,1.76-18.44,5.27c-5.41,3.51-9.66,8.36-12.75,14.54-3.09,6.18-4.63,13.27-4.63,21.28s1.51,14.93,4.53,21.17c3.02,6.25,7.23,11.2,12.64,14.85,5.41,3.65,11.62,5.48,18.65,5.48Z"/><path class="f" d="M1346.54,480.57h49.51c2.25,0,4.11,.77,5.58,2.32,1.47,1.55,2.21,3.37,2.21,5.48,0,2.25-.74,4.11-2.21,5.58s-3.34,2.21-5.58,2.21h-49.51c-2.11,0-3.93-.77-5.48-2.32-1.55-1.54-2.32-3.44-2.32-5.69,0-2.11,.77-3.9,2.32-5.37,1.54-1.48,3.37-2.21,5.48-2.21Zm22.12-28.65c2.39,0,4.35,.81,5.9,2.42,1.54,1.62,2.32,3.62,2.32,6v101.76c0,3.37,.49,5.9,1.47,7.58,.98,1.69,2.28,2.84,3.9,3.48,1.61,.63,3.19,.95,4.74,.95,1.4,0,2.63-.24,3.69-.74,1.05-.49,2.28-.74,3.69-.74s2.7,.67,3.9,2c1.19,1.34,1.79,3.05,1.79,5.16,0,2.53-1.47,4.67-4.42,6.43-2.95,1.76-6.25,2.63-9.9,2.63-1.97,0-4.39-.14-7.27-.42-2.88-.28-5.72-1.19-8.53-2.74-2.81-1.54-5.16-4.11-7.06-7.69-1.9-3.58-2.84-8.6-2.84-15.06v-102.6c0-2.39,.84-4.39,2.53-6,1.69-1.61,3.72-2.42,6.11-2.42Z"/><path class="f" d="M1476.53,590.97c-11.24,0-21.07-2.39-29.5-7.16-8.43-4.77-15-11.34-19.7-19.7-4.71-8.36-7.06-18.01-7.06-28.97,0-12.22,2.42-22.65,7.27-31.29,4.85-8.64,11.17-15.24,18.96-19.8,7.79-4.56,16.04-6.85,24.75-6.85,6.46,0,12.71,1.2,18.75,3.58,6.04,2.39,11.38,5.87,16.01,10.43,4.64,4.57,8.36,10.04,11.17,16.43,2.81,6.39,4.28,13.52,4.42,21.38,0,2.25-.84,4.14-2.53,5.69-1.69,1.55-3.65,2.32-5.9,2.32h-83.22l-3.79-14.54h81.11l-3.37,2.95v-4.63c-.56-5.76-2.5-10.71-5.79-14.85-3.3-4.14-7.3-7.34-12.01-9.59-4.71-2.25-9.66-3.37-14.85-3.37-4.21,0-8.39,.74-12.54,2.21-4.14,1.47-7.87,3.86-11.17,7.16-3.3,3.3-5.97,7.55-8.01,12.75-2.04,5.2-3.05,11.45-3.05,18.75,0,8.15,1.65,15.31,4.95,21.49,3.3,6.18,7.9,11.06,13.8,14.64,5.9,3.58,12.78,5.37,20.65,5.37,4.92,0,9.2-.63,12.85-1.9,3.65-1.26,6.81-2.84,9.48-4.74,2.67-1.9,4.92-3.83,6.74-5.79,1.82-1.26,3.58-1.9,5.27-1.9,2.11,0,3.83,.7,5.16,2.11,1.33,1.41,2,3.09,2,5.06,0,2.39-1.13,4.5-3.37,6.32-3.93,4.36-9.27,8.18-16.01,11.48-6.74,3.3-13.91,4.95-21.49,4.95Z"/></g><path class="e" d="M967.84,475.55v58.54l-.19,.11-50.51,29.16c-4.99-8.61-7.84-18.6-7.84-29.27,0-32.33,26.21-58.54,58.54-58.54Z"/><path class="d" d="M1026.38,534.09c0,10.73-2.89,20.79-7.93,29.43l-50.61-29.21v-58.76c32.33,0,58.54,26.21,58.54,58.54Z"/><path class="b" d="M1018.45,563.52c-10.14,17.41-29.01,29.11-50.61,29.11s-40.59-11.77-50.7-29.27l50.51-29.16,.19,.11,50.61,29.21Z"/></svg>